<?xml version="1.0" encoding="utf-8"?>
<!-- Generator: Adobe Illustrator 16.0.3, SVG Export Plug-In . SVG Version: 6.00 Build 0)  -->
<!DOCTYPE svg PUBLIC "-//W3C//DTD SVG 1.1//EN" "http://www.w3.org/Graphics/SVG/1.1/DTD/svg11.dtd">
<svg version="1.1" id="Ebene_1" xmlns="http://www.w3.org/2000/svg" xmlns:xlink="http://www.w3.org/1999/xlink" x="0px" y="0px"
	 width="14.74px" height="14.74px" viewBox="0 0 14.74 14.74" enable-background="new 0 0 14.74 14.74" xml:space="preserve">
<path d="M14.346,13.949c0.263,0.043,0.395,0.17,0.395,0.38v0.056c-0.053,0.237-0.171,0.355-0.355,0.355H0.371
	C0.124,14.698,0,14.574,0,14.369v-0.023c0-0.224,0.137-0.354,0.411-0.396H14.346z M1.926,11.636h10.912
	c0.231,0.048,0.347,0.164,0.347,0.349v0.102c0,0.189-0.143,0.302-0.427,0.332H1.942c-0.258-0.037-0.387-0.159-0.387-0.371v-0.039
	C1.592,11.761,1.715,11.636,1.926,11.636z"/>
</svg>
