<?xml version="1.0" encoding="utf-8"?>
<!-- Generator: Adobe Illustrator 16.0.3, SVG Export Plug-In . SVG Version: 6.00 Build 0)  -->
<!DOCTYPE svg PUBLIC "-//W3C//DTD SVG 1.1//EN" "http://www.w3.org/Graphics/SVG/1.1/DTD/svg11.dtd">
<svg version="1.1" id="Ebene_1" xmlns="http://www.w3.org/2000/svg" xmlns:xlink="http://www.w3.org/1999/xlink" x="0px" y="0px"
	 width="14.74px" height="14.733px" viewBox="0 0 14.74 14.733" enable-background="new 0 0 14.74 14.733" xml:space="preserve">
<path d="M7.208,2.727h0.3c2.896,0,5.077,0.72,6.549,2.16c0.42,0.497,0.629,0.963,0.629,1.398c0.016,0,0.034,0.224,0.055,0.669
	c0,0.815-0.11,1.722-0.33,2.722c-0.189,0.348-0.459,0.593-0.808,0.736c-0.174,0.046-0.386,0.069-0.638,0.069H1.791
	c-0.728,0-1.215-0.287-1.461-0.859C0.11,8.653,0,7.771,0,6.977V6.854c0-0.778,0.151-1.342,0.454-1.691
	c0.41-0.492,0.802-0.848,1.176-1.068C3.104,3.183,4.965,2.727,7.208,2.727z M0.522,11.964l0.085,0.015h13.595
	c0.174,0,0.284,0.119,0.33,0.354v0.046c-0.046,0.236-0.156,0.354-0.33,0.354H0.546c-0.179,0-0.297-0.122-0.354-0.369
	C0.192,12.179,0.302,12.047,0.522,11.964z M3.981,7.692H3.927C3.67,7.64,3.543,7.512,3.543,7.307l0.93-3.489H4.458
	c-0.81,0.2-1.448,0.421-1.914,0.661c-1,0.563-1.561,1.127-1.683,1.691C0.825,6.344,0.807,6.524,0.807,6.708v0.3
	c0,0.645,0.095,1.425,0.284,2.336c0.124,0.22,0.311,0.331,0.561,0.331H7.07c0.098,0,0.175-0.007,0.23-0.017
	c0.072,0.01,0.154,0.017,0.246,0.017h5.564c0.327,0,0.525-0.169,0.591-0.508c0.154-0.902,0.23-1.663,0.23-2.283
	c0-0.742-0.205-1.268-0.614-1.575c-0.45-0.446-1.002-0.796-1.652-1.053c-0.129-0.062-0.22-0.092-0.277-0.092
	c-0.563,2.095-0.873,3.22-0.93,3.374c-0.106,0.103-0.208,0.154-0.299,0.154h-0.07c-0.215,0-0.336-0.142-0.367-0.423
	c0-0.046,0.305-1.168,0.914-3.366c-0.995-0.22-1.715-0.33-2.159-0.33C7.795,6.068,7.427,7.389,7.37,7.538
	C7.277,7.64,7.178,7.692,7.07,7.692H7.001c-0.205,0-0.327-0.142-0.369-0.423c0-0.031,0.341-1.276,1.022-3.735H7.086
	c-1.061,0.026-1.64,0.08-1.737,0.162C4.708,6.088,4.352,7.37,4.281,7.538C4.178,7.64,4.079,7.692,3.981,7.692z"/>
</svg>
