<?xml version="1.0" encoding="utf-8"?>
<!-- Generator: Adobe Illustrator 16.0.3, SVG Export Plug-In . SVG Version: 6.00 Build 0)  -->
<!DOCTYPE svg PUBLIC "-//W3C//DTD SVG 1.1//EN" "http://www.w3.org/Graphics/SVG/1.1/DTD/svg11.dtd">
<svg version="1.1" id="Ebene_1" xmlns="http://www.w3.org/2000/svg" xmlns:xlink="http://www.w3.org/1999/xlink" x="0px" y="0px"
	 width="14.74px" height="14.733px" viewBox="0 0 14.74 14.733" enable-background="new 0 0 14.74 14.733" xml:space="preserve">
<path d="M0.388,0C0.54,0,0.757,0.164,1.036,0.49c0.728,0.717,1.093,1.078,1.099,1.083c1.034-1.027,1.56-1.542,1.581-1.542L3.883,0
	c0.157,0,0.44,0.232,0.845,0.696C5.31,1.281,5.604,1.573,5.614,1.573H5.63c1.023-1.017,1.542-1.526,1.559-1.526
	C7.257,0.016,7.33,0,7.41,0c0.104,0,0.321,0.182,0.648,0.546L9.11,1.573c1.032-1.027,1.558-1.542,1.572-1.542L10.857,0
	c0.153,0,0.367,0.164,0.642,0.49c0.726,0.717,1.095,1.078,1.106,1.083c1.022-1.017,1.542-1.526,1.558-1.526
	c0.042-0.021,0.086-0.031,0.134-0.031h0.088c0.194,0,0.313,0.128,0.355,0.388c0,0.157-0.193,0.403-0.577,0.734
	c-0.88,0.913-1.361,1.377-1.438,1.393c-0.038,0-0.076,0.005-0.119,0.016c-0.154,0-0.369-0.164-0.648-0.491
	c-0.007-0.01-0.372-0.374-1.1-1.091C9.824,1.993,9.297,2.508,9.276,2.508L9.11,2.547c-0.159,0-0.44-0.232-0.847-0.697L7.378,0.965
	H7.362C6.339,1.982,5.82,2.492,5.805,2.492C5.762,2.513,5.704,2.531,5.63,2.547c-0.152,0-0.351-0.147-0.593-0.443
	C5.026,2.099,4.642,1.719,3.883,0.965c-1.028,1.028-1.559,1.543-1.59,1.543L2.135,2.547c-0.148,0-0.361-0.164-0.641-0.491
	C0.514,1.102,0.021,0.591,0.016,0.522L0,0.427V0.372C0,0.171,0.129,0.047,0.388,0z"/>
</svg>
