<?xml version="1.0" encoding="utf-8"?>
<!-- Generator: Adobe Illustrator 16.0.3, SVG Export Plug-In . SVG Version: 6.00 Build 0)  -->
<!DOCTYPE svg PUBLIC "-//W3C//DTD SVG 1.1//EN" "http://www.w3.org/Graphics/SVG/1.1/DTD/svg11.dtd">
<svg version="1.1" id="Ebene_1" xmlns="http://www.w3.org/2000/svg" xmlns:xlink="http://www.w3.org/1999/xlink" x="0px" y="0px"
	 width="14.74px" height="14.756px" viewBox="0 0 14.74 14.756" enable-background="new 0 0 14.74 14.756" xml:space="preserve">
<path d="M0.372,0C0.54,0,0.777,0.179,1.083,0.538l1.06,1.051C3.164,0.54,3.701,0.016,3.754,0.016C3.791,0.016,3.833,0.01,3.88,0
	c0.153,0,0.44,0.237,0.862,0.711l0.893,0.877C6.637,0.556,7.166,0.04,7.224,0.04C7.271,0.014,7.313,0,7.351,0
	c0.168,0,0.397,0.173,0.688,0.521L9.12,1.588c1.013-1.043,1.556-1.567,1.629-1.572L10.858,0c0.154,0,0.378,0.173,0.673,0.521
	l1.083,1.067c1.007-1.043,1.547-1.567,1.62-1.572c0.058,0,0.095-0.006,0.111-0.016c0.263,0.047,0.395,0.171,0.395,0.372v0.055
	c0,0.137-0.193,0.374-0.577,0.711c-0.891,0.922-1.375,1.388-1.454,1.399h-0.134c-0.137,0-0.397-0.219-0.784-0.656l-0.933-0.909
	C9.826,2.005,9.291,2.521,9.256,2.521L9.145,2.538H9.09c-0.137,0-0.397-0.219-0.783-0.656L7.374,0.973
	c-1.033,1.032-1.57,1.549-1.612,1.549l-0.11,0.016H5.596c-0.137,0-0.397-0.219-0.782-0.656L3.88,0.973
	C2.848,2.005,2.313,2.521,2.276,2.521l-0.11,0.016H2.11c-0.137,0-0.329-0.151-0.576-0.451C0.521,1.106,0.016,0.59,0.016,0.538
	L0,0.427V0.332C0,0.173,0.124,0.063,0.372,0z M7.311,4.664H7.43c0.727,0,1.217,0.218,1.471,0.656
	C8.988,5.608,9.034,6.03,9.034,6.584v0.229c0,1.127-0.265,2.263-0.791,3.405c0.796,0.048,1.779,0.316,2.949,0.808
	c0.489,0.226,1.032,0.574,1.627,1.043c0.137,0.204,0.206,0.416,0.206,0.631c0,0.533-0.301,1.117-0.9,1.756
	c-0.254,0.199-0.501,0.3-0.743,0.3c-0.723-0.143-1.65-0.683-2.783-1.62c-0.521-0.501-0.93-0.957-1.225-1.368
	c-0.648,0.85-1.328,1.516-2.039,2.001c-0.975,0.648-1.639,0.977-1.992,0.987c-0.585,0-1.096-0.517-1.534-1.549
	C1.762,13.039,1.731,12.87,1.715,12.7c0-0.432,0.255-0.778,0.767-1.042c0.727-0.549,1.733-0.978,3.02-1.289
	c0.489-0.084,0.813-0.127,0.972-0.127v-0.023C5.951,9.012,5.69,7.832,5.69,6.679c0-0.833,0.087-1.344,0.261-1.534
	C6.23,4.824,6.684,4.664,7.311,4.664z M2.521,12.67v0.055c0,0.316,0.21,0.7,0.632,1.154c0.069,0.052,0.124,0.079,0.166,0.079h0.024
	c1.475-0.591,2.661-1.563,3.556-2.916v-0.016l-0.016-0.041c-0.996,0.043-1.997,0.298-3.003,0.768
	C2.974,12.222,2.521,12.527,2.521,12.67z M6.497,6.473v0.427c0,1.055,0.284,2.149,0.854,3.289h0.023
	c0.58-1.082,0.869-2.227,0.869-3.438V6.567c0-0.658-0.055-0.987-0.166-0.987C7.93,5.49,7.695,5.445,7.374,5.445
	c-0.563,0-0.846,0.118-0.846,0.355C6.508,6.033,6.497,6.257,6.497,6.473z M7.855,10.985l-0.015,0.041
	c0.88,1.354,2.065,2.331,3.557,2.932h0.023c0.21,0,0.472-0.351,0.782-1.051c0.01-0.112,0.023-0.18,0.04-0.207
	c0-0.125-0.238-0.318-0.712-0.575c-0.574-0.374-1.309-0.686-2.204-0.933C8.61,11.061,8.12,10.991,7.855,10.985z"/>
</svg>
