<?xml version="1.0" encoding="utf-8"?>
<!-- Generator: Adobe Illustrator 16.0.3, SVG Export Plug-In . SVG Version: 6.00 Build 0)  -->
<!DOCTYPE svg PUBLIC "-//W3C//DTD SVG 1.1//EN" "http://www.w3.org/Graphics/SVG/1.1/DTD/svg11.dtd">
<svg version="1.1" id="Ebene_1" xmlns="http://www.w3.org/2000/svg" xmlns:xlink="http://www.w3.org/1999/xlink" x="0px" y="0px"
	 width="14.74px" height="14.733px" viewBox="0 0 14.74 14.733" enable-background="new 0 0 14.74 14.733" xml:space="preserve">
<path d="M7.376,0.77c0.953,0,1.581,0.261,1.888,0.785c0.127,0.376,0.189,0.97,0.189,1.78c0,1.672-0.374,3.289-1.122,4.847
	c0.688,0.01,1.674,0.215,2.96,0.614c0.688,0.261,1.333,0.56,1.937,0.896c0.399,0.257,0.791,0.522,1.174,0.801
	c0.225,0.253,0.338,0.536,0.338,0.848c0,0.636-0.347,1.357-1.039,2.161c-0.349,0.306-0.676,0.461-0.982,0.461
	c-0.373-0.019-1.12-0.372-2.245-1.054c-0.491-0.316-1.093-0.804-1.803-1.461c-0.599-0.656-1.034-1.184-1.308-1.584
	c-0.24,0.404-0.739,0.994-1.497,1.766c-0.924,0.835-1.768,1.442-2.531,1.824c-0.669,0.339-1.107,0.509-1.314,0.509
	c-0.693,0-1.321-0.631-1.886-1.889C0.044,11.766,0,11.521,0,11.341c0-0.49,0.266-0.882,0.798-1.174
	C1.42,9.721,2.145,9.326,2.975,8.982c1.201-0.438,2.063-0.672,2.586-0.7c0.202-0.043,0.48-0.076,0.833-0.1V8.168
	C5.656,6.585,5.285,5.05,5.285,3.562V3.081c0-0.951,0.108-1.529,0.325-1.731C5.958,0.963,6.547,0.77,7.376,0.77z M0.784,11.364
	c0,0.357,0.238,0.85,0.714,1.476c0.211,0.211,0.369,0.319,0.473,0.325h0.085c0.966-0.34,2.013-1.005,3.145-1.992
	c0.733-0.717,1.21-1.263,1.426-1.632c0.185-0.236,0.277-0.383,0.277-0.438c-0.015,0-0.05-0.052-0.106-0.157
	c-1.098,0-2.36,0.29-3.788,0.87c-0.631,0.281-1.268,0.645-1.908,1.088C0.89,11.034,0.784,11.189,0.784,11.364z M6.07,3.116V3.49
	c0,1.537,0.396,3.088,1.188,4.657h0.226C8.275,6.579,8.67,4.963,8.67,3.3C8.637,2.358,8.585,1.872,8.514,1.844
	c-0.234-0.193-0.637-0.29-1.201-0.29c-0.612,0-0.998,0.133-1.158,0.403C6.098,2.381,6.07,2.768,6.07,3.116z M7.92,8.966
	c-0.056,0.101-0.085,0.156-0.085,0.17c0.223,0.42,0.721,1.036,1.5,1.852c0.771,0.712,1.462,1.231,2.069,1.562
	c0.527,0.297,0.953,0.501,1.279,0.615h0.048c0.279,0,0.607-0.352,0.991-1.053c0.146-0.302,0.218-0.528,0.218-0.679v-0.142
	c0-0.149-0.165-0.319-0.494-0.508c-0.462-0.326-1.006-0.636-1.632-0.934C10.416,9.261,9.119,8.966,7.92,8.966z"/>
</svg>
