<?xml version="1.0" encoding="utf-8"?>
<!-- Generator: Adobe Illustrator 16.0.3, SVG Export Plug-In . SVG Version: 6.00 Build 0)  -->
<!DOCTYPE svg PUBLIC "-//W3C//DTD SVG 1.1//EN" "http://www.w3.org/Graphics/SVG/1.1/DTD/svg11.dtd">
<svg version="1.1" id="Ebene_1" xmlns="http://www.w3.org/2000/svg" xmlns:xlink="http://www.w3.org/1999/xlink" x="0px" y="0px"
	 width="14.74px" height="14.74px" viewBox="0 0 14.74 14.74" enable-background="new 0 0 14.74 14.74" xml:space="preserve">
<path d="M8.999,0c0.274,0.058,0.41,0.185,0.41,0.379v0.046c0,0.116-0.092,0.319-0.276,0.607C8.438,2.239,8.092,2.849,8.092,2.864
	h2.422c0.263,0,0.434,0.082,0.514,0.245c0.02,0.116,0.032,0.177,0.032,0.182c0,0.179-0.105,0.313-0.317,0.402
	c-0.072,0.011-0.133,0.016-0.181,0.016h-2.47v0.016C8.971,5.24,9.409,6.028,9.409,6.092v0.103C9.361,6.437,9.241,6.558,9.047,6.558
	H8.952c-0.18,0-0.366-0.221-0.561-0.663c-0.08-0.11-0.413-0.697-1.002-1.76H7.351C6.561,5.55,6.117,6.323,6.017,6.455
	C5.932,6.522,5.856,6.558,5.787,6.558H5.692C5.451,6.505,5.33,6.384,5.33,6.194V6.076c0.084-0.205,0.523-0.989,1.318-2.352V3.708
	H4.139C3.833,3.677,3.681,3.533,3.681,3.274c0-0.173,0.105-0.305,0.316-0.394c0.089-0.01,0.166-0.016,0.229-0.016h2.423
	C5.77,1.323,5.33,0.539,5.33,0.513V0.379c0.047-0.242,0.167-0.363,0.362-0.363h0.08c0.184,0,0.36,0.192,0.528,0.576
	c0.673,1.158,1.023,1.773,1.05,1.847c0.053-0.042,0.427-0.684,1.12-1.926C8.639,0.171,8.814,0,8.999,0z M7.318,6.968h0.056
	c0.227,0,0.39,0.171,0.487,0.513c1.285,2.71,1.927,4.22,1.927,4.529c0.021,0.2,0.032,0.332,0.032,0.395
	c0,0.731-0.355,1.373-1.064,1.926c-0.417,0.273-0.906,0.41-1.47,0.41c-0.741,0-1.388-0.346-1.941-1.034
	C5.062,13.27,4.92,12.831,4.92,12.389c0-0.499,0.252-1.266,0.757-2.297c0.874-1.957,1.339-2.961,1.396-3.014
	C7.164,7.005,7.245,6.968,7.318,6.968z M7.351,8.38c-1.063,2.314-1.595,3.567-1.595,3.757L5.74,12.365
	c0,0.521,0.263,0.96,0.79,1.317c0.284,0.159,0.525,0.236,0.727,0.236c0.021-0.01,0.037-0.015,0.047-0.015
	c0.027,0,0.071,0.005,0.134,0.015c0.51,0,0.95-0.252,1.319-0.757c0.162-0.273,0.243-0.539,0.243-0.797
	c0-0.384-0.409-1.42-1.23-3.109L7.39,8.38H7.351z"/>
</svg>
