<?xml version="1.0" encoding="utf-8"?>
<!-- Generator: Adobe Illustrator 16.0.3, SVG Export Plug-In . SVG Version: 6.00 Build 0)  -->
<!DOCTYPE svg PUBLIC "-//W3C//DTD SVG 1.1//EN" "http://www.w3.org/Graphics/SVG/1.1/DTD/svg11.dtd">
<svg version="1.1" id="Ebene_1" xmlns="http://www.w3.org/2000/svg" xmlns:xlink="http://www.w3.org/1999/xlink" x="0px" y="0px"
	 width="14.74px" height="14.733px" viewBox="0 0 14.74 14.733" enable-background="new 0 0 14.74 14.733" xml:space="preserve">
<path d="M7.244,1.812h0.261c1.546,0,3.156,0.481,4.828,1.444c0.385,0.226,0.854,0.586,1.413,1.081
	c0.662,0.685,0.994,1.139,0.994,1.365c0,0.205-0.132,0.331-0.395,0.379c-0.174,0-0.332-0.137-0.474-0.41
	c-0.505-0.658-1.063-1.179-1.673-1.563C10.595,3.092,8.985,2.585,7.37,2.585c-1.546,0-3.144,0.5-4.79,1.499
	c-0.353,0.211-0.8,0.582-1.341,1.113c-0.248,0.3-0.429,0.55-0.545,0.749C0.61,6.036,0.505,6.081,0.379,6.081
	C0.179,6.081,0.052,5.95,0,5.686C0,5.46,0.337,5.007,1.01,4.329c0.874-0.81,1.934-1.449,3.181-1.917
	C5.316,2.011,6.334,1.812,7.244,1.812z M0.418,7.225c0.19,0,0.318,0.131,0.387,0.395c0.032,0.263,0.058,0.394,0.079,0.394h12.973
	c0.016,0,0.056-0.18,0.118-0.544c0.096-0.158,0.2-0.236,0.315-0.236h0.095c0.189,0,0.308,0.128,0.355,0.387
	c-0.637,3.6-0.974,5.463-1.011,5.595c-0.095,0.147-0.201,0.222-0.323,0.222H1.334c-0.221,0-0.353-0.183-0.396-0.545
	c-0.615-3.451-0.922-5.2-0.922-5.247V7.573c0-0.159,0.103-0.271,0.307-0.34L0.418,7.225z M1.01,8.788
	c0.442,2.526,0.671,3.817,0.687,3.875h11.331c0.027,0,0.135-0.582,0.325-1.745c0.01,0,0.135-0.709,0.377-2.13H1.01z"/>
</svg>
