<?xml version="1.0" encoding="utf-8"?>
<!-- Generator: Adobe Illustrator 16.0.3, SVG Export Plug-In . SVG Version: 6.00 Build 0)  -->
<!DOCTYPE svg PUBLIC "-//W3C//DTD SVG 1.1//EN" "http://www.w3.org/Graphics/SVG/1.1/DTD/svg11.dtd">
<svg version="1.1" id="Ebene_1" xmlns="http://www.w3.org/2000/svg" xmlns:xlink="http://www.w3.org/1999/xlink" x="0px" y="0px"
	 width="14.74px" height="14.733px" viewBox="0 0 14.74 14.733" enable-background="new 0 0 14.74 14.733" xml:space="preserve">
<path d="M0.388,0C0.54,0,0.757,0.164,1.036,0.49c0.728,0.717,1.093,1.078,1.099,1.083c1.034-1.027,1.56-1.542,1.581-1.542L3.883,0
	c0.157,0,0.44,0.232,0.845,0.696C5.31,1.281,5.604,1.573,5.614,1.573H5.63c1.023-1.017,1.542-1.526,1.559-1.526
	C7.257,0.016,7.33,0,7.41,0c0.104,0,0.321,0.182,0.648,0.546L9.11,1.573c1.032-1.027,1.558-1.542,1.574-1.542L10.857,0
	c0.152,0,0.367,0.164,0.642,0.49c0.726,0.717,1.095,1.078,1.106,1.083c1.022-1.017,1.542-1.526,1.558-1.526
	c0.042-0.021,0.086-0.031,0.134-0.031h0.088c0.194,0,0.313,0.128,0.355,0.388c0,0.157-0.193,0.403-0.577,0.734
	c-0.88,0.913-1.361,1.376-1.438,1.393c-0.038,0-0.076,0.005-0.119,0.016c-0.154,0-0.369-0.165-0.648-0.491
	c-0.007-0.01-0.372-0.374-1.1-1.091C9.824,1.993,9.297,2.507,9.276,2.507L9.11,2.547c-0.159,0-0.44-0.233-0.847-0.697L7.378,0.965
	H7.362C6.339,1.982,5.82,2.491,5.805,2.491C5.762,2.512,5.704,2.531,5.63,2.547c-0.152,0-0.351-0.148-0.593-0.444
	C5.026,2.098,4.642,1.719,3.883,0.965c-1.028,1.028-1.559,1.542-1.59,1.542l-0.158,0.04c-0.148,0-0.361-0.165-0.641-0.491
	C0.514,1.102,0.021,0.591,0.016,0.522L0,0.427V0.372C0,0.171,0.129,0.047,0.388,0z M0.404,4.254c0.136,0,0.397,0.216,0.783,0.649
	l0.949,0.933c1.006-1.008,1.521-1.511,1.542-1.511C3.735,4.289,3.793,4.27,3.851,4.27h0.063c0.126,0,0.298,0.132,0.514,0.396
	L5.63,5.853c1.019-1.039,1.551-1.559,1.598-1.559L7.33,4.27h0.08c0.126,0,0.348,0.182,0.664,0.546l1.051,1.036
	c1.013-1.028,1.532-1.543,1.56-1.543c0.04-0.026,0.088-0.04,0.142-0.04h0.063c0.142,0,0.402,0.216,0.781,0.649
	c0.013,0,0.322,0.312,0.935,0.934c1.001-1.028,1.539-1.548,1.613-1.559l0.095-0.023h0.071c0.199,0,0.318,0.137,0.355,0.411
	c0,0.138-0.152,0.336-0.459,0.594c-0.97,0.997-1.479,1.494-1.526,1.494c-0.053,0.021-0.106,0.032-0.166,0.032
	c-0.143,0-0.353-0.164-0.632-0.49l-1.1-1.084C9.824,6.25,9.297,6.765,9.276,6.77C9.196,6.79,9.138,6.802,9.094,6.802
	c-0.143,0-0.369-0.183-0.68-0.546L7.362,5.228C6.36,6.256,5.823,6.775,5.749,6.785c-0.059,0.01-0.108,0.017-0.15,0.017
	c-0.126,0-0.329-0.164-0.608-0.49L3.883,5.228C2.85,6.256,2.325,6.77,2.309,6.77C2.23,6.79,2.167,6.802,2.119,6.802
	c-0.137,0-0.335-0.153-0.593-0.458c-1.006-0.981-1.51-1.496-1.51-1.543L0,4.681C0.031,4.397,0.166,4.254,0.404,4.254z"/>
</svg>
