<?xml version="1.0" encoding="utf-8"?>
<!-- Generator: Adobe Illustrator 16.0.3, SVG Export Plug-In . SVG Version: 6.00 Build 0)  -->
<!DOCTYPE svg PUBLIC "-//W3C//DTD SVG 1.1//EN" "http://www.w3.org/Graphics/SVG/1.1/DTD/svg11.dtd">
<svg version="1.1" id="Ebene_1" xmlns="http://www.w3.org/2000/svg" xmlns:xlink="http://www.w3.org/1999/xlink" x="0px" y="0px"
	 width="14.74px" height="14.74px" viewBox="0 0 14.74 14.74" enable-background="new 0 0 14.74 14.74" xml:space="preserve">
<path d="M0.379,9.307h13.982c0.189,0,0.313,0.108,0.37,0.325l0.009,0.054c0,0.196-0.104,0.327-0.309,0.396
	c-0.052,0.003-0.103,0.007-0.148,0.007h-0.498l-1.492,2.228c-0.096,0.067-0.2,0.102-0.315,0.102h-9.19
	c-0.237,0-0.403-0.115-0.498-0.348c-0.031-0.02-0.473-0.682-1.326-1.981H0.427c-0.211,0-0.351-0.101-0.419-0.3
	C0.002,9.752,0,9.716,0,9.679C0,9.51,0.095,9.391,0.284,9.323C0.316,9.313,0.347,9.307,0.379,9.307z M0.395,13.958h13.951
	c0.185,0,0.313,0.1,0.386,0.3c0,0.017,0.004,0.046,0.009,0.088c0,0.22-0.134,0.352-0.403,0.395H0.411
	C0.137,14.713,0,14.579,0,14.337C0,14.12,0.131,13.995,0.395,13.958z M7.366,4.649c0.053,0.005,0.129,0.008,0.229,0.008h3.293
	c0.457,0,0.896,0.234,1.31,0.703c0.08,0.105,0.527,1,1.343,2.684c0.01,0.011,0.016,0.028,0.016,0.055v0.095
	c0,0.158-0.107,0.274-0.323,0.348h-0.071c-0.2,0-0.355-0.163-0.466-0.489c-0.727-1.442-1.115-2.2-1.168-2.274
	c-0.222-0.232-0.491-0.347-0.806-0.347H7.595c-0.1,0-0.176,0.005-0.229,0.015c-0.058-0.01-0.134-0.015-0.229-0.015H3.979
	c-0.373,0-0.663,0.152-0.868,0.458C2.294,7.531,1.869,8.373,1.832,8.415C1.748,8.499,1.65,8.541,1.54,8.541
	c-0.195,0-0.323-0.108-0.387-0.324V8.115c0-0.058,0.185-0.447,0.553-1.168c0.489-0.995,0.769-1.535,0.837-1.619
	c0.411-0.447,0.837-0.671,1.279-0.671h3.316C7.232,4.657,7.309,4.654,7.366,4.649z M1.91,10.089v0.017l1.011,1.53h8.897
	c0.005-0.025,0.342-0.535,1.011-1.53v-0.017H1.91z"/>
</svg>
