<?xml version="1.0" encoding="utf-8"?>
<!-- Generator: Adobe Illustrator 16.0.3, SVG Export Plug-In . SVG Version: 6.00 Build 0)  -->
<!DOCTYPE svg PUBLIC "-//W3C//DTD SVG 1.1//EN" "http://www.w3.org/Graphics/SVG/1.1/DTD/svg11.dtd">
<svg version="1.1" id="Ebene_1" xmlns="http://www.w3.org/2000/svg" xmlns:xlink="http://www.w3.org/1999/xlink" x="0px" y="0px"
	 width="14.74px" height="14.733px" viewBox="0 0 14.74 14.733" enable-background="new 0 0 14.74 14.733" xml:space="preserve">
<path d="M0.427,2.321h13.887c0.284,0.021,0.427,0.158,0.427,0.411c-0.042,0.242-0.162,0.363-0.364,0.363
	c0,0.011-0.035,0.016-0.109,0.016h-0.475c-0.01,0.005-0.513,0.748-1.508,2.226c-0.093,0.063-0.176,0.096-0.244,0.096H2.747
	c-0.205,0-0.394-0.169-0.568-0.506c-0.8-1.189-1.2-1.794-1.2-1.815H0.474c-0.232,0-0.379-0.084-0.443-0.253
	C0.01,2.779,0,2.731,0,2.715C0,2.484,0.142,2.352,0.427,2.321z M0.442,6.972h13.841c0.305,0,0.457,0.136,0.457,0.409
	c0,0.159-0.086,0.274-0.261,0.349c-0.048,0.021-0.113,0.031-0.196,0.031h-0.491c-0.025,0.017-0.518,0.749-1.476,2.196
	c-0.095,0.084-0.182,0.127-0.261,0.127H2.7c-0.173,0-0.352-0.18-0.537-0.539c-0.016,0-0.41-0.594-1.184-1.784H0.442
	C0.147,7.729,0,7.598,0,7.366C0,7.134,0.147,7.002,0.442,6.972z M0.347,11.638h14.046c0.185,0,0.299,0.121,0.347,0.363
	c0,0.252-0.143,0.389-0.427,0.41H0.427C0.142,12.384,0,12.248,0,12.001C0.058,11.759,0.173,11.638,0.347,11.638z M1.903,3.11
	c0.685,1.027,1.031,1.54,1.042,1.54h8.851c0.037-0.027,0.384-0.541,1.043-1.54H1.903z M1.903,7.761C2.587,8.789,2.934,9.3,2.944,9.3
	h8.851c0.037-0.027,0.384-0.537,1.043-1.54H1.903z"/>
</svg>
