<?xml version="1.0" encoding="utf-8"?>
<!-- Generator: Adobe Illustrator 16.0.3, SVG Export Plug-In . SVG Version: 6.00 Build 0)  -->
<!DOCTYPE svg PUBLIC "-//W3C//DTD SVG 1.1//EN" "http://www.w3.org/Graphics/SVG/1.1/DTD/svg11.dtd">
<svg version="1.1" id="Ebene_1" xmlns="http://www.w3.org/2000/svg" xmlns:xlink="http://www.w3.org/1999/xlink" x="0px" y="0px"
	 width="14.74px" height="14.755px" viewBox="0 0 14.74 14.755" enable-background="new 0 0 14.74 14.755" xml:space="preserve">
<path d="M7.42,0c0.869,0,1.686,0.316,2.45,0.948c0.489,0.469,0.807,1.011,0.949,1.628c0.325-0.074,0.6-0.111,0.819-0.111h0.159
	c1.064,0,1.938,0.503,2.623,1.51c0.214,0.342,0.318,0.582,0.318,0.719c0,0.2-0.135,0.321-0.403,0.363H14.32
	c-0.196,0-0.359-0.187-0.491-0.561c-0.525-0.828-1.192-1.241-1.999-1.241h-0.221c-0.284,0-0.644,0.082-1.074,0.245h-0.136
	c-0.237,0-0.355-0.245-0.355-0.734C10.007,2.418,9.781,2.01,9.366,1.541c-0.597-0.5-1.278-0.75-2.048-0.75
	c-0.674,0-1.312,0.237-1.912,0.71c-0.512,0.47-0.767,1.054-0.767,1.755C4.544,3.419,4.433,3.5,4.307,3.5H4.22
	C3.751,3.338,3.372,3.256,3.082,3.256H2.924c-0.827,0-1.509,0.427-2.047,1.28C0.75,4.884,0.603,5.058,0.435,5.058H0.371
	C0.124,5.016,0,4.9,0,4.71V4.623c0.174-0.58,0.558-1.106,1.154-1.581c0.569-0.385,1.188-0.577,1.857-0.577
	c0.321,0,0.625,0.042,0.909,0.127c0.053-0.448,0.321-0.957,0.806-1.526C5.48,0.356,6.377,0,7.42,0z M0.418,9.311H14.35
	c0.217,0,0.346,0.132,0.39,0.403c-0.054,0.258-0.183,0.387-0.39,0.387h-0.559c-0.027,0.015-0.522,0.75-1.488,2.204
	c-0.095,0.079-0.203,0.118-0.332,0.118h-9.26c-0.19,0-0.369-0.174-0.538-0.521c-0.147-0.178-0.55-0.779-1.209-1.801H0.371
	C0.124,10.053,0,9.938,0,9.751V9.666C0,9.46,0.14,9.341,0.418,9.311z M0.403,13.965h13.964c0.206,0,0.328,0.134,0.372,0.401
	c0,0.228-0.146,0.356-0.437,0.389H0.435c-0.242,0-0.387-0.11-0.435-0.332V14.32C0,14.109,0.135,13.99,0.403,13.965z M1.904,10.101
	v0.015c0.665,1.002,1.009,1.51,1.036,1.525h8.858c0.021-0.011,0.366-0.523,1.037-1.54H1.904z M5.461,3.889
	c0.284,0,0.466,0.318,0.545,0.956v0.095c0,0.232-0.118,0.978-0.355,2.237C5.64,7.308,5.634,7.423,5.634,7.524
	c0,0.168,0.053,0.331,0.159,0.488c0.025,0.064,0.038,0.111,0.038,0.143C5.774,8.414,5.661,8.543,5.493,8.543H5.39
	c-0.295,0-0.475-0.341-0.538-1.019V7.478c0-0.26,0.115-1.013,0.347-2.262c0.012-0.158,0.017-0.268,0.017-0.332
	c0-0.126-0.059-0.308-0.175-0.545V4.252c0-0.211,0.135-0.332,0.403-0.363H5.461z M7.349,3.889h0.04c0.247,0,0.422,0.236,0.521,0.71
	c0.011,0.074,0.016,0.156,0.016,0.245v0.182c0,0.227-0.11,0.938-0.331,2.134C7.584,7.243,7.579,7.349,7.579,7.478v0.03
	c0,0.189,0.058,0.376,0.174,0.561v0.158c0,0.159-0.116,0.264-0.348,0.316h-0.07c-0.249,0-0.422-0.259-0.522-0.774
	c-0.016-0.09-0.023-0.183-0.023-0.277c0-0.295,0.111-1.029,0.332-2.204l0.04-0.372c0-0.164-0.054-0.332-0.158-0.506
	c-0.012-0.021-0.017-0.05-0.017-0.086V4.236C6.986,4.051,7.107,3.936,7.349,3.889z M9.31,3.889c0.284,0,0.466,0.279,0.544,0.837
	c0.012,0.059,0.017,0.129,0.017,0.213c0,0.263-0.115,1.009-0.348,2.237c-0.012,0.173-0.015,0.29-0.015,0.349
	c0,0.156,0.058,0.334,0.173,0.529c0.01,0.047,0.017,0.086,0.017,0.118c-0.055,0.247-0.17,0.371-0.349,0.371H9.262
	c-0.274,0-0.45-0.297-0.53-0.893V7.437L8.716,7.335c0-0.095,0.117-0.803,0.348-2.119c0.017-0.11,0.023-0.221,0.023-0.332
	c0-0.158-0.061-0.334-0.181-0.529V4.267C8.907,4.046,9.041,3.92,9.31,3.889z"/>
</svg>
