<?xml version="1.0" encoding="utf-8"?>
<!-- Generator: Adobe Illustrator 16.0.3, SVG Export Plug-In . SVG Version: 6.00 Build 0)  -->
<!DOCTYPE svg PUBLIC "-//W3C//DTD SVG 1.1//EN" "http://www.w3.org/Graphics/SVG/1.1/DTD/svg11.dtd">
<svg version="1.1" id="Ebene_1" xmlns="http://www.w3.org/2000/svg" xmlns:xlink="http://www.w3.org/1999/xlink" x="0px" y="0px"
	 width="14.74px" height="14.726px" viewBox="0 0 14.74 14.726" enable-background="new 0 0 14.74 14.726" xml:space="preserve">
<path d="M0.426,0h3.099c0.216,0,0.339,0.142,0.371,0.426c0,0.179-0.124,0.297-0.371,0.355H0.426C0.142,0.754,0,0.625,0,0.395
	C0,0.157,0.142,0.026,0.426,0z M3.446,13.944c0.226,0,0.376,0.104,0.45,0.316v0.071c-0.048,0.262-0.165,0.395-0.355,0.395H0.339
	c-0.163,0-0.276-0.124-0.339-0.371c0-0.242,0.142-0.379,0.426-0.411H3.446z M11.089,3.092c0.667,0,1.332,0.386,1.996,1.16
	c0.352,0.504,0.61,0.996,0.78,1.475c0.337,0.936,0.504,1.774,0.504,2.516c0,1.157-0.746,1.928-2.239,2.312
	c-0.811,0.194-1.69,0.293-2.643,0.293H8.944c-1.479,0-3.402-0.335-5.774-1.002C1.319,9.233,0.395,8.549,0.395,7.792
	c0-0.589,0.278-1.223,0.836-1.901c0.221-0.226,0.662-0.339,1.325-0.339C3.933,5.605,4.703,5.63,4.866,5.63h0.111
	c0.983,0,2.25-0.527,3.802-1.585C9.72,3.41,10.488,3.092,11.089,3.092z M1.175,7.808C1.212,8.066,1.69,8.394,2.61,8.794
	C3.357,9.116,4.469,9.42,5.946,9.708c1.193,0.21,1.956,0.314,2.287,0.314c0-0.656-1.341-1.157-4.022-1.505
	c-0.747-0.2-1.12-0.542-1.12-1.026V7.398c0-0.279,0.145-0.62,0.433-1.025C3.247,6.351,2.916,6.341,2.531,6.341
	c-0.509,0-0.801,0.086-0.875,0.26C1.335,7.095,1.175,7.498,1.175,7.808z M4.842,6.427c-0.063-0.01-0.136-0.016-0.22-0.016H4.487
	C4.078,6.885,3.872,7.24,3.872,7.477c0,0.168,0.592,0.323,1.774,0.465c2.251,0.362,3.376,1.071,3.376,2.122h0.409
	c1.652,0,2.861-0.254,3.629-0.765c0.336-0.242,0.505-0.572,0.505-0.986V8.052c0-1.02-0.347-2.101-1.041-3.242
	c-0.526-0.62-1.004-0.93-1.436-0.93c-0.469,0-1.271,0.384-2.405,1.151C7.264,5.962,5.983,6.427,4.842,6.427z M5.386,0h3.951
	c0.2,0,0.325,0.131,0.372,0.395C9.662,0.652,9.537,0.781,9.337,0.781H5.426C5.163,0.728,5.031,0.599,5.031,0.395
	C5.031,0.2,5.15,0.068,5.386,0z M5.442,13.944h3.816c0.3,0.032,0.45,0.155,0.45,0.37v0.018c-0.047,0.262-0.165,0.395-0.355,0.395
	h-3.99c-0.147,0-0.258-0.124-0.332-0.371C5.084,14.081,5.221,13.944,5.442,13.944z M11.214,0h3.155
	c0.247,0.047,0.371,0.171,0.371,0.371v0.04c-0.048,0.247-0.171,0.371-0.371,0.371h-3.091c-0.222,0-0.358-0.101-0.411-0.3V0.316
	C10.867,0.152,10.984,0.047,11.214,0z M11.294,13.944h2.996c0.301,0,0.45,0.142,0.45,0.427c-0.053,0.236-0.171,0.355-0.355,0.355
	h-3.201c-0.211-0.064-0.316-0.17-0.316-0.316v-0.11C10.867,14.089,11.01,13.971,11.294,13.944z"/>
</svg>
