<?xml version="1.0" encoding="utf-8"?>
<!-- Generator: Adobe Illustrator 16.0.3, SVG Export Plug-In . SVG Version: 6.00 Build 0)  -->
<!DOCTYPE svg PUBLIC "-//W3C//DTD SVG 1.1//EN" "http://www.w3.org/Graphics/SVG/1.1/DTD/svg11.dtd">
<svg version="1.1" id="Ebene_1" xmlns="http://www.w3.org/2000/svg" xmlns:xlink="http://www.w3.org/1999/xlink" x="0px" y="0px"
	 width="14.74px" height="14.74px" viewBox="0 0 14.74 14.74" enable-background="new 0 0 14.74 14.74" xml:space="preserve">
<path d="M0.371,0h13.999c0.247,0.052,0.371,0.164,0.371,0.332V0.45c0,0.195-0.144,0.308-0.434,0.339H0.434
	C0.145,0.79,0,0.65,0,0.371C0.047,0.124,0.171,0,0.371,0z M14.346,13.951c0.263,0.041,0.395,0.168,0.395,0.378v0.056
	c-0.053,0.237-0.171,0.355-0.355,0.355H0.371C0.124,14.698,0,14.574,0,14.369v-0.023c0-0.222,0.137-0.354,0.411-0.395H14.346z
	 M12.734,2.322c0.301,0.026,0.45,0.136,0.45,0.331v0.104c-0.042,0.231-0.157,0.347-0.347,0.347H1.887
	c-0.174,0-0.284-0.124-0.331-0.371v-0.04c0-0.211,0.136-0.334,0.411-0.371H12.734z M1.926,11.638h10.912
	c0.231,0.047,0.347,0.162,0.347,0.347v0.104c0,0.189-0.143,0.3-0.427,0.332H1.942c-0.258-0.038-0.387-0.161-0.387-0.371v-0.041
	C1.592,11.761,1.715,11.638,1.926,11.638z"/>
</svg>
